<?xml version="1.0" encoding="UTF-8"?>
<svg id="_Слой_1" data-name="Слой 1" xmlns="http://www.w3.org/2000/svg" viewBox="0 0 286 231">
  <path fill="#a5cbd4" class="cls-1" d="m273.84,99H90.91l107.63-62.14c4.61-2.66,6.19-8.56,3.53-13.17l-6.86-11.88c-2.66-4.61-8.56-6.19-13.17-3.53C125.26,41.07,68.48,73.86,11.69,106.65c-6.43,3.71-6.43,12.98,0,16.7,56.78,32.79,113.57,65.58,170.35,98.37,4.61,2.66,10.51,1.08,13.17-3.53l6.86-11.88c2.66-4.61,1.08-10.51-3.53-13.17l-107.63-62.14h182.93c5.61,0,10.16-4.55,10.16-10.16v-11.68c0-5.61-4.55-10.16-10.16-10.16Z"/>
</svg>