<?xml version="1.0" encoding="UTF-8"?>
<svg id="_Слой_1" data-name="Слой 1" xmlns="http://www.w3.org/2000/svg" viewBox="0 0 336 253">
  <path fill="#e4cf9b" class="cls-1" d="m329.32,110.46h-120.22l70.73-40.84c3.03-1.75,4.07-5.62,2.32-8.65l-4.51-7.81c-1.75-3.03-5.62-4.07-8.65-2.32-37.32,21.55-74.63,43.1-111.95,64.65-4.22,2.44-4.22,8.53,0,10.97,37.32,21.55,74.63,43.1,111.95,64.65,3.03,1.75,6.9.71,8.65-2.32l4.51-7.81c1.75-3.03.71-6.9-2.32-8.65l-70.73-40.84h120.22c3.69,0,6.68-2.99,6.68-6.68v-7.68c0-3.69-2.99-6.68-6.68-6.68Z"/>
  <polygon fill="#e4cf9b" class="cls-1" points="0 0 0 253 17 253 17 15 129 15 129 27 37 27 37 253 142 253 142 0 0 0"/>
</svg>