<svg id="_Слой_1" data-name="Слой 1" xmlns="http://www.w3.org/2000/svg" width="auto" height="auto" viewBox="0 0 712.5 370.75">
    <rect fill="#e4cf9b" x="35.5" y="45.25" width="540" height="250"/>
    <circle fill="#00005e" cx="72.5" cy="73.25" r="63"/>
    <circle fill="#fff" cx="226.5" cy="265.25" r="55"/>
    <circle fill="#a5cbd4" cx="317.5" cy="169.25" r="51"/>
    <circle fill="#00005e" cx="576.5" cy="78.25" r="42"/>
    <circle fill="#fff" cx="497.5" cy="230.25" r="20"/>
    <circle fill="#fff" cx="280.5" cy="56.25" r="54"/>
    <circle fill="#fff" cx="82" cy="205.75" r="17.5"/>
    <circle fill="#00005e" cx="624" cy="281.75" r="80.5"/>
    <circle fill="#00005e" cx="440.5" cy="51.25" r="40"/>
    <circle fill="#fff" cx="440.5" cy="176.25" r="40"/>
    <circle fill="#a5cbd4" cx="583" cy="185.75" r="65.5"/>
    <circle fill="#a5cbd4" cx="135.5" cy="119.25" r="63"/>
    <circle fill="#00005e" cx="415.5" cy="253.25" r="65"/>
    <circle fill="#a5cbd4" cx="104.5" cy="291.25" r="40"/>
    <circle fill="#00005e" cx="253.5" cy="173.25" r="37"/>
    <circle fill="#a5cbd4" cx="505.5" cy="98.25" r="12"/>
    <circle fill="#a5cbd4" cx="379.5" cy="112.25" r="21"/>
    <circle fill="#00005e" cx="156.5" cy="222.25" r="12"/>
    <circle fill="#a5cbd4" cx="326" cy="269.75" r="8.5"/>
</svg>